<svg width="395" height="242" viewBox="0 0 395 242" fill="none" xmlns="http://www.w3.org/2000/svg">
<path d="M138.816 237L135.208 224.988L131.798 237H129.884L126.826 223.888C126.753 223.551 126.694 223.316 126.65 223.184C126.606 223.037 126.54 222.942 126.452 222.898C126.379 222.854 126.261 222.825 126.1 222.81L124.89 222.656V222.04H130.984V222.656L129.774 222.81C129.539 222.839 129.415 222.898 129.4 222.986C129.385 223.074 129.429 223.375 129.532 223.888L131.82 234.14L135.186 222.04H137.012L140.598 233.92L142.93 223.888C143.047 223.375 143.091 223.074 143.062 222.986C143.033 222.898 142.908 222.839 142.688 222.81L141.478 222.656V222.04H145.746V222.656L144.536 222.81C144.375 222.825 144.257 222.854 144.184 222.898C144.111 222.942 144.045 223.037 143.986 223.184C143.942 223.316 143.883 223.551 143.81 223.888L140.752 237H138.816ZM149.672 222.656V222.04H156.294C157.908 222.04 159.11 222.414 159.902 223.162C160.709 223.895 161.112 224.878 161.112 226.11V226.616C161.112 227.848 160.709 228.838 159.902 229.586C159.11 230.334 157.908 230.708 156.294 230.708H154.006V235.152C154.006 235.651 154.028 235.951 154.072 236.054C154.116 236.142 154.256 236.201 154.49 236.23L156.14 236.384V237H149.672V236.384L150.882 236.23C151.117 236.201 151.256 236.142 151.3 236.054C151.344 235.951 151.366 235.651 151.366 235.152V223.888C151.366 223.389 151.344 223.096 151.3 223.008C151.256 222.905 151.117 222.839 150.882 222.81L149.672 222.656ZM156.294 222.81H154.006V229.938H156.294C156.94 229.938 157.431 229.681 157.768 229.168C158.12 228.655 158.296 227.951 158.296 227.056V225.67C158.296 224.775 158.12 224.079 157.768 223.58C157.431 223.067 156.94 222.81 156.294 222.81ZM191.171 236.384V237H185.143V236.384L186.353 236.23C186.588 236.201 186.727 236.142 186.771 236.054C186.815 235.951 186.837 235.651 186.837 235.152V223.844L182.811 235.24H180.457L176.475 223.91V235.152C176.475 235.651 176.497 235.951 176.541 236.054C176.585 236.142 176.724 236.201 176.959 236.23L178.169 236.384V237H173.901V236.384L175.111 236.23C175.346 236.201 175.485 236.142 175.529 236.054C175.573 235.951 175.595 235.651 175.595 235.152V223.888C175.595 223.389 175.573 223.096 175.529 223.008C175.485 222.905 175.346 222.839 175.111 222.81L173.901 222.656V222.04H178.543L182.569 233.48L186.661 222.04H191.171V222.656L189.961 222.81C189.726 222.839 189.587 222.905 189.543 223.008C189.499 223.096 189.477 223.389 189.477 223.888V235.152C189.477 235.651 189.499 235.951 189.543 236.054C189.587 236.142 189.726 236.201 189.961 236.23L191.171 236.384ZM196.145 222.656V222.04H202.173V222.656L200.963 222.81C200.728 222.839 200.589 222.905 200.545 223.008C200.501 223.096 200.479 223.389 200.479 223.888V235.152C200.479 235.651 200.501 235.951 200.545 236.054C200.589 236.142 200.728 236.201 200.963 236.23L202.173 236.384V237H196.145V236.384L197.355 236.23C197.59 236.201 197.729 236.142 197.773 236.054C197.817 235.951 197.839 235.651 197.839 235.152V223.888C197.839 223.389 197.817 223.096 197.773 223.008C197.729 222.905 197.59 222.839 197.355 222.81L196.145 222.656ZM216.437 222.656V222.04H220.705V222.656L219.495 222.81C219.26 222.839 219.121 222.905 219.077 223.008C219.033 223.096 219.011 223.389 219.011 223.888V237H217.801L209.727 223.954V235.152C209.727 235.651 209.749 235.951 209.793 236.054C209.837 236.142 209.976 236.201 210.211 236.23L211.421 236.384V237H207.153V236.384L208.363 236.23C208.597 236.201 208.737 236.142 208.781 236.054C208.825 235.951 208.847 235.651 208.847 235.152V223.888C208.847 223.389 208.825 223.096 208.781 223.008C208.737 222.905 208.597 222.839 208.363 222.81L207.153 222.656V222.04H211.575L218.131 232.578V223.888C218.131 223.389 218.109 223.096 218.065 223.008C218.021 222.905 217.881 222.839 217.647 222.81L216.437 222.656ZM235.61 233.216H236.226V237H225.336V236.384L226.546 236.23C226.781 236.201 226.92 236.142 226.964 236.054C227.008 235.951 227.03 235.651 227.03 235.152V223.888C227.03 223.389 227.008 223.096 226.964 223.008C226.92 222.905 226.781 222.839 226.546 222.81L225.336 222.656V222.04H236.006V225.824H235.39L234.686 223.382C234.642 223.206 234.591 223.081 234.532 223.008C234.488 222.92 234.393 222.869 234.246 222.854C234.099 222.825 233.85 222.81 233.498 222.81H229.67V229.058H232.178C232.53 229.058 232.779 229.051 232.926 229.036C233.073 229.007 233.168 228.955 233.212 228.882C233.271 228.794 233.322 228.662 233.366 228.486L233.85 226.704H234.466V232.182H233.85L233.366 230.4C233.322 230.224 233.271 230.099 233.212 230.026C233.168 229.938 233.073 229.887 232.926 229.872C232.779 229.843 232.53 229.828 232.178 229.828H229.67V236.23H233.718C234.07 236.23 234.319 236.223 234.466 236.208C234.613 236.179 234.708 236.127 234.752 236.054C234.811 235.966 234.862 235.834 234.906 235.658L235.61 233.216ZM241.672 222.656V222.04H248.316C249.856 222.04 251.044 222.385 251.88 223.074C252.716 223.763 253.134 224.687 253.134 225.846V226.352C253.134 227.232 252.892 227.98 252.408 228.596C251.924 229.212 251.227 229.652 250.318 229.916L253.068 235.152C253.244 235.475 253.376 235.709 253.464 235.856C253.552 236.003 253.633 236.098 253.706 236.142C253.794 236.171 253.911 236.201 254.058 236.23L255.048 236.384V237H250.934L247.612 230.18H246.006V235.152C246.006 235.651 246.028 235.951 246.072 236.054C246.116 236.142 246.255 236.201 246.49 236.23L247.7 236.384V237H241.672V236.384L242.882 236.23C243.117 236.201 243.256 236.142 243.3 236.054C243.344 235.951 243.366 235.651 243.366 235.152V223.888C243.366 223.389 243.344 223.096 243.3 223.008C243.256 222.905 243.117 222.839 242.882 222.81L241.672 222.656ZM248.316 222.81H246.006V229.41H248.316C248.961 229.41 249.453 229.212 249.79 228.816C250.142 228.405 250.318 227.657 250.318 226.572V225.626C250.318 224.541 250.142 223.8 249.79 223.404C249.453 223.008 248.961 222.81 248.316 222.81ZM264.186 236.45C265.066 236.45 265.792 236.245 266.364 235.834C266.951 235.409 267.244 234.749 267.244 233.854C267.244 233.194 267.046 232.644 266.65 232.204C266.269 231.764 265.579 231.397 264.582 231.104L262.536 230.488C261.509 230.18 260.717 229.652 260.16 228.904C259.617 228.141 259.346 227.195 259.346 226.066C259.346 225.318 259.515 224.621 259.852 223.976C260.204 223.331 260.732 222.81 261.436 222.414C262.155 222.018 263.057 221.82 264.142 221.82C265.33 221.82 266.291 222.04 267.024 222.48C267.757 222.905 268.271 223.463 268.564 224.152C268.857 224.841 268.931 225.582 268.784 226.374L266.254 226.836C266.489 225.472 266.386 224.423 265.946 223.69C265.521 222.957 264.824 222.59 263.856 222.59C263.108 222.59 262.507 222.81 262.052 223.25C261.612 223.69 261.392 224.321 261.392 225.142C261.392 225.817 261.583 226.411 261.964 226.924C262.36 227.437 263.005 227.833 263.9 228.112L265.946 228.728C267.061 229.051 267.897 229.542 268.454 230.202C269.011 230.847 269.29 231.749 269.29 232.908C269.29 233.729 269.099 234.47 268.718 235.13C268.351 235.775 267.787 236.289 267.024 236.67C266.276 237.037 265.337 237.22 264.208 237.22C263.387 237.22 262.609 237.103 261.876 236.868C261.143 236.619 260.527 236.215 260.028 235.658C259.544 235.101 259.236 234.345 259.104 233.392L260.578 232.864C260.651 233.803 260.857 234.536 261.194 235.064C261.546 235.577 261.979 235.937 262.492 236.142C263.02 236.347 263.585 236.45 264.186 236.45Z" fill="black"/>
<path d="M132.25 34.4456L16 101.563C9.33333 105.412 9.33331 115.034 16 118.883L132.25 186" stroke="black" stroke-width="21"/>
<path d="M263 185.554L379.25 118.437C385.917 114.588 385.917 104.966 379.25 101.117L263 34" stroke="black" stroke-width="21"/>
<path d="M161.121 96.8718V122.889C161.121 126.306 161.794 129.689 163.102 132.845C164.41 136.002 166.328 138.87 168.747 141.286C171.165 143.702 174.036 145.619 177.195 146.926C180.355 148.234 183.742 148.907 187.162 148.907H206.096C209.516 148.907 212.903 148.234 216.062 146.926C219.222 145.619 222.093 143.702 224.511 141.286C226.929 138.87 228.847 136.002 230.156 132.845C231.464 129.689 232.137 126.306 232.136 122.889V96.8769L161.121 96.8718ZM215.215 53.9466C215.938 54.5509 216.39 55.4172 216.473 56.3549C216.557 57.2925 216.263 58.2247 215.658 58.9464C212.352 62.8814 211.621 65.5665 212.641 67.3668C212.96 67.9275 215.694 72.2432 216.323 73.5754C217.744 76.5845 217.929 79.5011 216.704 82.9475C215.802 85.4227 214.495 87.7312 212.836 89.7784H232.821C235.071 89.8607 236.704 90.4317 237.713 91.5016C238.279 92.088 238.681 92.8287 238.933 93.7238L239.242 93.7135C243.952 93.7135 248.469 95.5823 251.799 98.9089C255.129 102.236 257 106.747 257 111.452C257 116.156 255.129 120.668 251.799 123.995C248.469 127.322 243.952 129.19 239.242 129.19L238.645 129.17C237.184 136.721 233.136 143.529 227.198 148.425C221.26 153.321 213.801 155.999 206.101 156H187.157C182.804 156 178.494 155.144 174.473 153.479C170.451 151.815 166.798 149.376 163.72 146.302C160.643 143.227 158.202 139.577 156.536 135.56C154.871 131.543 154.014 127.237 154.015 122.889V96.0076C153.912 93.7803 154.334 92.2012 155.272 91.2753C156.214 90.3494 157.604 89.8505 159.437 89.7836H174.644C174.842 89.4539 175.092 89.1585 175.385 88.9091C178.526 86.2498 180.576 83.4721 181.605 80.5762C182.193 78.9301 182.126 77.9528 181.492 76.6103C181.091 75.7564 178.562 71.7648 178.058 70.8698C175.282 65.9728 176.811 60.3558 181.806 54.3992C182.1 54.0243 182.466 53.7121 182.883 53.4815C183.3 53.2508 183.759 53.1063 184.234 53.0566C184.708 53.0069 185.187 53.053 185.643 53.1921C186.099 53.3312 186.522 53.5605 186.887 53.8664C187.252 54.1723 187.552 54.5484 187.769 54.9725C187.986 55.3966 188.115 55.8599 188.149 56.3348C188.182 56.8098 188.12 57.2866 187.966 57.7371C187.811 58.1875 187.568 58.6023 187.249 58.9567C183.943 62.8917 183.217 65.5768 184.237 67.3771C184.551 67.9378 187.29 72.2534 187.919 73.5857C189.335 76.5948 189.525 79.5114 188.295 82.9577C187.395 85.4327 186.09 87.7411 184.432 89.7887H188.851C189.049 89.459 189.299 89.1637 189.592 88.9143C192.728 86.2498 194.778 83.4721 195.807 80.5762C196.394 78.9301 196.333 77.9528 195.694 76.6103C195.293 75.7564 192.764 71.7648 192.26 70.8698C189.484 65.9728 191.013 60.3558 196.013 54.3992C196.305 54.0171 196.67 53.6981 197.089 53.4613C197.507 53.2245 197.969 53.075 198.447 53.0218C198.925 52.9686 199.408 53.0129 199.868 53.1518C200.329 53.2908 200.756 53.5216 201.124 53.8303C201.492 54.1389 201.794 54.519 202.011 54.9476C202.228 55.3762 202.356 55.8443 202.386 56.3235C202.417 56.8028 202.35 57.2833 202.189 57.7359C202.028 58.1885 201.777 58.6038 201.451 58.9567C198.15 62.8917 197.419 65.5768 198.439 67.3771C198.758 67.9378 201.492 72.2534 202.121 73.5857C203.542 76.5948 203.727 79.5114 202.496 82.9577C201.597 85.4327 200.292 87.7411 198.634 89.7887H203.058C203.254 89.4594 203.503 89.1641 203.794 88.9143C206.935 86.2498 208.98 83.4721 210.009 80.5762C210.596 78.9301 210.535 77.9528 209.896 76.6103C209.494 75.7564 206.971 71.7648 206.462 70.8698C203.691 65.9728 205.215 60.3558 210.215 54.3992C210.82 53.6791 211.686 53.2281 212.624 53.1451C213.561 53.0622 214.493 53.3541 215.215 53.9569V53.9466ZM239.237 100.807V122.092C242.063 122.092 244.773 120.971 246.771 118.975C248.769 116.979 249.891 114.272 249.891 111.449C249.891 108.627 248.769 105.92 246.771 103.924C244.773 101.928 242.063 100.807 239.237 100.807V100.807Z" fill="#545454"/>
</svg>
